<svg xmlns="http://www.w3.org/2000/svg" width="375" viewBox="0 0 375 375" height="375" version="1.0"><path fill="#FFF" d="M-37.5 -37.5H412.5V412.5H-37.5z"/><path fill="#FFF" d="M-37.5 -37.5H412.5V412.5H-37.5z"/><path fill="#FFF" d="M-37.5 -37.5H412.5V412.5H-37.5z"/><path fill="#0D3858" d="M 187.292969 187.851562 L 284.222656 90.921875 L 200.402344 7.101562 C 193.339844 0.0390625 181.890625 0.0390625 174.824219 7.101562 L 90.6875 91.242188 Z M 187.292969 187.851562"/><path fill="#0D3858" d="M 187.214844 187.933594 L 90.605469 91.328125 L 7.105469 174.824219 C 0.0429688 181.890625 0.0390625 193.339844 7.105469 200.402344 L 90.921875 284.222656 Z M 187.214844 187.933594"/><path fill="#0D3858" d="M 187.292969 187.851562 L 284.222656 90.921875 L 368.042969 174.742188 C 375.105469 181.804688 375.105469 193.257812 368.042969 200.320312 L 283.90625 284.457031 Z M 187.292969 187.851562"/><path fill="#0D3858" d="M 187.214844 187.933594 L 283.820312 284.546875 L 200.324219 368.042969 C 193.257812 375.105469 181.808594 375.105469 174.746094 368.042969 L 90.921875 284.222656 Z M 187.214844 187.933594"/><path stroke-linecap="round" transform="translate(-122.039 -122.039) scale(1.45631)" fill="none" stroke-linejoin="round" d="M 205.337327 205.833554 C 205.337327 205.833554 195.050738 195.546965 191.086311 191.579855 C 187.116519 187.612746 187.918524 183.760975 190.466701 181.212797 C 195.337743 176.344438 204.535322 181.01699 211.729229 173.823083 C 219.317432 166.232198 219.320114 153.92316 211.729229 146.332275 C 204.13566 138.738706 191.829305 138.741389 184.23842 146.332275 C 177.044513 153.523499 180.783628 163.651833 176.846023 167.59212 C 175.046205 169.389255 170.808184 171.307094 167.576023 168.07225 C 164.343861 164.840088 146.072089 146.452978 146.072089 146.452978" stroke="#FFF" stroke-width="4.987" stroke-miterlimit="10"/><path stroke-linecap="round" transform="translate(-122.039 -122.039) scale(1.45631)" fill="none" stroke-linejoin="round" d="M 219.255739 219.977279 C 219.255739 219.977279 229.539646 230.261186 233.506756 234.228295 C 237.476548 238.198087 236.67186 242.047176 234.121001 244.595353 C 229.252641 249.466395 220.055062 244.791161 212.861156 251.985067 C 205.272952 259.575953 205.272952 271.887673 212.863838 279.478559 C 220.454724 287.069444 232.763761 287.069444 240.354647 279.475876 C 247.545871 272.284652 243.809439 262.156318 247.744361 258.218714 C 249.546861 256.418896 253.7822 254.503739 257.017044 257.738583 C 260.249205 260.968063 278.520977 279.355173 278.520977 279.355173" stroke="#FFF" stroke-width="4.987" stroke-miterlimit="10"/><path stroke-linecap="round" transform="translate(-122.039 -122.039) scale(1.45631)" fill="none" stroke-linejoin="round" d="M 205.224671 219.86194 C 205.224671 219.86194 194.938082 230.14853 190.970972 234.115639 C 187.003862 238.082749 183.154774 237.280744 180.603914 234.729884 C 175.732872 229.861524 180.410789 220.663946 173.216882 213.470039 C 165.623314 205.881835 153.314277 205.881835 145.723391 213.472721 C 138.129823 221.063607 138.135188 233.369962 145.723391 240.96353 C 152.917298 248.157437 163.045632 244.418322 166.983236 248.355926 C 168.780372 250.153062 170.69821 254.391083 167.466049 257.623245 C 164.231205 260.855406 145.844094 279.129861 145.844094 279.129861" stroke="#FFF" stroke-width="4.987" stroke-miterlimit="10"/><path stroke-linecap="round" transform="translate(-122.039 -122.039) scale(1.45631)" fill="none" stroke-linejoin="round" d="M 219.365713 205.943528 C 219.365713 205.943528 229.652302 195.659621 233.61673 191.692512 C 237.586522 187.725402 241.438293 188.527407 243.98647 191.075585 C 248.85483 195.946626 244.182277 205.144205 251.376184 212.338112 C 258.96707 219.928998 271.278789 219.928998 278.866993 212.338112 C 286.460561 204.744544 286.457879 192.435506 278.866993 184.847303 C 271.675769 177.653396 261.544752 181.389829 257.60983 177.454907 C 255.810012 175.655089 253.894856 171.417068 257.127018 168.184906 C 260.359179 164.950062 278.74629 146.67829 278.74629 146.67829" stroke="#FFF" stroke-width="4.987" stroke-miterlimit="10"/></svg>